<mxfile host="Electron" modified="2023-10-29T08:41:43.404Z" agent="Mozilla/5.0 (Windows NT 10.0; Win64; x64) AppleWebKit/537.36 (KHTML, like Gecko) draw.io/22.0.2 Chrome/114.0.5735.289 Electron/25.8.4 Safari/537.36" etag="wXUdj1LTzUlSjjkESn9d" version="22.0.2" type="device">
  <diagram name="Page-1" id="1ohKNWkDU8yakhS3Xj9J">
    <mxGraphModel dx="989" dy="589" grid="1" gridSize="10" guides="1" tooltips="1" connect="1" arrows="1" fold="1" page="1" pageScale="1" pageWidth="850" pageHeight="1100" math="0" shadow="0">
      <root>
        <mxCell id="0" />
        <mxCell id="1" parent="0" />
        <mxCell id="iq2cGOWBgzLNHuhJLWZD-1" value="" style="rounded=0;whiteSpace=wrap;html=1;fontFamily=Helvetica;fontSize=11;fontColor=default;dashed=1;dashPattern=1 4;" vertex="1" parent="1">
          <mxGeometry x="151.5" y="300" width="500" height="170" as="geometry" />
        </mxCell>
        <mxCell id="iq2cGOWBgzLNHuhJLWZD-2" value="User" style="shape=umlLifeline;perimeter=lifelinePerimeter;whiteSpace=wrap;html=1;container=0;dropTarget=0;collapsible=0;recursiveResize=0;outlineConnect=0;portConstraint=eastwest;newEdgeStyle={&quot;edgeStyle&quot;:&quot;elbowEdgeStyle&quot;,&quot;elbow&quot;:&quot;vertical&quot;,&quot;curved&quot;:0,&quot;rounded&quot;:0};" vertex="1" parent="1">
          <mxGeometry x="140" y="80" width="100" height="421" as="geometry" />
        </mxCell>
        <mxCell id="iq2cGOWBgzLNHuhJLWZD-3" value="" style="html=1;points=[];perimeter=orthogonalPerimeter;outlineConnect=0;targetShapes=umlLifeline;portConstraint=eastwest;newEdgeStyle={&quot;edgeStyle&quot;:&quot;elbowEdgeStyle&quot;,&quot;elbow&quot;:&quot;vertical&quot;,&quot;curved&quot;:0,&quot;rounded&quot;:0};" vertex="1" parent="iq2cGOWBgzLNHuhJLWZD-2">
          <mxGeometry x="45" y="70" width="10" height="40" as="geometry" />
        </mxCell>
        <mxCell id="iq2cGOWBgzLNHuhJLWZD-39" value="" style="html=1;points=[];perimeter=orthogonalPerimeter;outlineConnect=0;targetShapes=umlLifeline;portConstraint=eastwest;newEdgeStyle={&quot;edgeStyle&quot;:&quot;elbowEdgeStyle&quot;,&quot;elbow&quot;:&quot;vertical&quot;,&quot;curved&quot;:0,&quot;rounded&quot;:0};" vertex="1" parent="iq2cGOWBgzLNHuhJLWZD-2">
          <mxGeometry x="45" y="120" width="10" height="90" as="geometry" />
        </mxCell>
        <mxCell id="iq2cGOWBgzLNHuhJLWZD-63" value="" style="html=1;points=[];perimeter=orthogonalPerimeter;outlineConnect=0;targetShapes=umlLifeline;portConstraint=eastwest;newEdgeStyle={&quot;edgeStyle&quot;:&quot;elbowEdgeStyle&quot;,&quot;elbow&quot;:&quot;vertical&quot;,&quot;curved&quot;:0,&quot;rounded&quot;:0};" vertex="1" parent="iq2cGOWBgzLNHuhJLWZD-2">
          <mxGeometry x="45" y="320" width="10" height="50" as="geometry" />
        </mxCell>
        <mxCell id="iq2cGOWBgzLNHuhJLWZD-5" value="Login screen" style="shape=umlLifeline;perimeter=lifelinePerimeter;whiteSpace=wrap;html=1;container=0;dropTarget=0;collapsible=0;recursiveResize=0;outlineConnect=0;portConstraint=eastwest;newEdgeStyle={&quot;edgeStyle&quot;:&quot;elbowEdgeStyle&quot;,&quot;elbow&quot;:&quot;vertical&quot;,&quot;curved&quot;:0,&quot;rounded&quot;:0};" vertex="1" parent="1">
          <mxGeometry x="345" y="80" width="100" height="400" as="geometry" />
        </mxCell>
        <mxCell id="iq2cGOWBgzLNHuhJLWZD-6" value="" style="html=1;points=[];perimeter=orthogonalPerimeter;outlineConnect=0;targetShapes=umlLifeline;portConstraint=eastwest;newEdgeStyle={&quot;edgeStyle&quot;:&quot;elbowEdgeStyle&quot;,&quot;elbow&quot;:&quot;vertical&quot;,&quot;curved&quot;:0,&quot;rounded&quot;:0};" vertex="1" parent="iq2cGOWBgzLNHuhJLWZD-5">
          <mxGeometry x="45" y="70" width="10" height="140" as="geometry" />
        </mxCell>
        <mxCell id="iq2cGOWBgzLNHuhJLWZD-41" value="" style="html=1;points=[];perimeter=orthogonalPerimeter;outlineConnect=0;targetShapes=umlLifeline;portConstraint=eastwest;newEdgeStyle={&quot;edgeStyle&quot;:&quot;elbowEdgeStyle&quot;,&quot;elbow&quot;:&quot;vertical&quot;,&quot;curved&quot;:0,&quot;rounded&quot;:0};" vertex="1" parent="iq2cGOWBgzLNHuhJLWZD-5">
          <mxGeometry x="45" y="220" width="10" height="70" as="geometry" />
        </mxCell>
        <mxCell id="iq2cGOWBgzLNHuhJLWZD-10" value="System" style="shape=umlLifeline;perimeter=lifelinePerimeter;whiteSpace=wrap;html=1;container=0;dropTarget=0;collapsible=0;recursiveResize=0;outlineConnect=0;portConstraint=eastwest;newEdgeStyle={&quot;edgeStyle&quot;:&quot;elbowEdgeStyle&quot;,&quot;elbow&quot;:&quot;vertical&quot;,&quot;curved&quot;:0,&quot;rounded&quot;:0};" vertex="1" parent="1">
          <mxGeometry x="540" y="79" width="100" height="422" as="geometry" />
        </mxCell>
        <mxCell id="iq2cGOWBgzLNHuhJLWZD-11" value="" style="html=1;points=[];perimeter=orthogonalPerimeter;outlineConnect=0;targetShapes=umlLifeline;portConstraint=eastwest;newEdgeStyle={&quot;edgeStyle&quot;:&quot;elbowEdgeStyle&quot;,&quot;elbow&quot;:&quot;vertical&quot;,&quot;curved&quot;:0,&quot;rounded&quot;:0};" vertex="1" parent="iq2cGOWBgzLNHuhJLWZD-10">
          <mxGeometry x="45" y="80" width="10" height="294" as="geometry" />
        </mxCell>
        <mxCell id="iq2cGOWBgzLNHuhJLWZD-12" style="edgeStyle=elbowEdgeStyle;rounded=0;orthogonalLoop=1;jettySize=auto;html=1;elbow=vertical;curved=0;dashed=1;" edge="1" parent="1" target="iq2cGOWBgzLNHuhJLWZD-6">
          <mxGeometry relative="1" as="geometry">
            <mxPoint x="195" y="170.0031034482759" as="sourcePoint" />
            <mxPoint x="340" y="168" as="targetPoint" />
          </mxGeometry>
        </mxCell>
        <mxCell id="iq2cGOWBgzLNHuhJLWZD-13" value="Tap &quot;Login&quot;&lt;br&gt;button" style="edgeLabel;html=1;align=center;verticalAlign=middle;resizable=0;points=[];fontSize=11;fontFamily=Helvetica;fontColor=default;" vertex="1" connectable="0" parent="iq2cGOWBgzLNHuhJLWZD-12">
          <mxGeometry x="-0.2673" y="-3" relative="1" as="geometry">
            <mxPoint x="18" y="-3" as="offset" />
          </mxGeometry>
        </mxCell>
        <mxCell id="iq2cGOWBgzLNHuhJLWZD-31" style="edgeStyle=elbowEdgeStyle;rounded=0;orthogonalLoop=1;jettySize=auto;html=1;elbow=vertical;curved=0;" edge="1" parent="1" target="iq2cGOWBgzLNHuhJLWZD-39">
          <mxGeometry relative="1" as="geometry">
            <mxPoint x="390" y="220.31034482758628" as="sourcePoint" />
            <mxPoint x="200" y="220" as="targetPoint" />
          </mxGeometry>
        </mxCell>
        <mxCell id="iq2cGOWBgzLNHuhJLWZD-32" style="edgeStyle=elbowEdgeStyle;rounded=0;orthogonalLoop=1;jettySize=auto;html=1;elbow=horizontal;curved=0;dashed=1;exitX=1.5;exitY=0.333;exitDx=0;exitDy=0;exitPerimeter=0;" edge="1" parent="1">
          <mxGeometry relative="1" as="geometry">
            <mxPoint x="200" y="259.99999999999994" as="sourcePoint" />
            <mxPoint x="390" y="260.08" as="targetPoint" />
            <Array as="points">
              <mxPoint x="209.5" y="260.08" />
            </Array>
          </mxGeometry>
        </mxCell>
        <mxCell id="iq2cGOWBgzLNHuhJLWZD-33" value="Enter required login form" style="edgeLabel;html=1;align=center;verticalAlign=middle;resizable=0;points=[];" vertex="1" connectable="0" parent="iq2cGOWBgzLNHuhJLWZD-32">
          <mxGeometry x="-0.1182" y="-2" relative="1" as="geometry">
            <mxPoint x="2" y="-2" as="offset" />
          </mxGeometry>
        </mxCell>
        <mxCell id="iq2cGOWBgzLNHuhJLWZD-35" style="edgeStyle=elbowEdgeStyle;rounded=0;orthogonalLoop=1;jettySize=auto;html=1;elbow=vertical;curved=0;" edge="1" parent="1">
          <mxGeometry relative="1" as="geometry">
            <mxPoint x="400" y="247.65862068965524" as="sourcePoint" />
            <mxPoint x="584.9999999999998" y="247.65862068965524" as="targetPoint" />
          </mxGeometry>
        </mxCell>
        <mxCell id="iq2cGOWBgzLNHuhJLWZD-36" value="Check data" style="edgeLabel;html=1;align=center;verticalAlign=middle;resizable=0;points=[];" vertex="1" connectable="0" parent="iq2cGOWBgzLNHuhJLWZD-35">
          <mxGeometry x="-0.1949" y="1" relative="1" as="geometry">
            <mxPoint x="6" y="1" as="offset" />
          </mxGeometry>
        </mxCell>
        <mxCell id="iq2cGOWBgzLNHuhJLWZD-40" style="edgeStyle=elbowEdgeStyle;rounded=0;orthogonalLoop=1;jettySize=auto;html=1;elbow=vertical;curved=0;" edge="1" parent="1">
          <mxGeometry relative="1" as="geometry">
            <mxPoint x="400" y="325.1379310344828" as="targetPoint" />
            <mxPoint x="584.9999999999998" y="325.1379310344828" as="sourcePoint" />
          </mxGeometry>
        </mxCell>
        <mxCell id="iq2cGOWBgzLNHuhJLWZD-42" value="If data validated" style="edgeLabel;html=1;align=center;verticalAlign=middle;resizable=0;points=[];" vertex="1" connectable="0" parent="iq2cGOWBgzLNHuhJLWZD-40">
          <mxGeometry x="0.2026" y="1" relative="1" as="geometry">
            <mxPoint x="16" y="-1" as="offset" />
          </mxGeometry>
        </mxCell>
        <mxCell id="iq2cGOWBgzLNHuhJLWZD-53" style="edgeStyle=elbowEdgeStyle;rounded=0;orthogonalLoop=1;jettySize=auto;html=1;elbow=horizontal;curved=0;dashed=1;endArrow=none;endFill=0;" edge="1" parent="1">
          <mxGeometry relative="1" as="geometry">
            <mxPoint x="267.5" y="510" as="targetPoint" />
            <mxPoint x="282.5" y="340" as="sourcePoint" />
          </mxGeometry>
        </mxCell>
        <mxCell id="iq2cGOWBgzLNHuhJLWZD-56" style="edgeStyle=elbowEdgeStyle;rounded=0;orthogonalLoop=1;jettySize=auto;html=1;elbow=vertical;curved=0;dashed=1;endArrow=none;endFill=0;" edge="1" parent="1" source="iq2cGOWBgzLNHuhJLWZD-43">
          <mxGeometry relative="1" as="geometry">
            <mxPoint x="275" y="290" as="targetPoint" />
          </mxGeometry>
        </mxCell>
        <mxCell id="iq2cGOWBgzLNHuhJLWZD-43" value="" style="html=1;points=[];perimeter=orthogonalPerimeter;outlineConnect=0;targetShapes=umlLifeline;portConstraint=eastwest;newEdgeStyle={&quot;edgeStyle&quot;:&quot;elbowEdgeStyle&quot;,&quot;elbow&quot;:&quot;vertical&quot;,&quot;curved&quot;:0,&quot;rounded&quot;:0};" vertex="1" parent="1">
          <mxGeometry x="270" y="320" width="10" height="40" as="geometry" />
        </mxCell>
        <mxCell id="iq2cGOWBgzLNHuhJLWZD-46" style="edgeStyle=elbowEdgeStyle;rounded=0;orthogonalLoop=1;jettySize=auto;html=1;elbow=vertical;curved=0;" edge="1" parent="1" source="iq2cGOWBgzLNHuhJLWZD-41" target="iq2cGOWBgzLNHuhJLWZD-43">
          <mxGeometry relative="1" as="geometry" />
        </mxCell>
        <mxCell id="iq2cGOWBgzLNHuhJLWZD-50" value="Login success&lt;br&gt;to &quot;home&quot; screen" style="edgeLabel;html=1;align=center;verticalAlign=middle;resizable=0;points=[];" vertex="1" connectable="0" parent="iq2cGOWBgzLNHuhJLWZD-46">
          <mxGeometry x="0.2578" y="2" relative="1" as="geometry">
            <mxPoint x="12" y="-2" as="offset" />
          </mxGeometry>
        </mxCell>
        <mxCell id="iq2cGOWBgzLNHuhJLWZD-64" style="edgeStyle=elbowEdgeStyle;rounded=0;orthogonalLoop=1;jettySize=auto;html=1;elbow=vertical;curved=0;" edge="1" parent="1" source="iq2cGOWBgzLNHuhJLWZD-52" target="iq2cGOWBgzLNHuhJLWZD-63">
          <mxGeometry relative="1" as="geometry" />
        </mxCell>
        <mxCell id="iq2cGOWBgzLNHuhJLWZD-65" value="Request&lt;br&gt;re-inform" style="edgeLabel;html=1;align=center;verticalAlign=middle;resizable=0;points=[];" vertex="1" connectable="0" parent="iq2cGOWBgzLNHuhJLWZD-64">
          <mxGeometry x="0.3526" y="-1" relative="1" as="geometry">
            <mxPoint x="11" y="1" as="offset" />
          </mxGeometry>
        </mxCell>
        <mxCell id="iq2cGOWBgzLNHuhJLWZD-52" value="" style="html=1;points=[];perimeter=orthogonalPerimeter;outlineConnect=0;targetShapes=umlLifeline;portConstraint=eastwest;newEdgeStyle={&quot;edgeStyle&quot;:&quot;elbowEdgeStyle&quot;,&quot;elbow&quot;:&quot;vertical&quot;,&quot;curved&quot;:0,&quot;rounded&quot;:0};" vertex="1" parent="1">
          <mxGeometry x="270" y="400" width="10" height="40" as="geometry" />
        </mxCell>
        <mxCell id="iq2cGOWBgzLNHuhJLWZD-58" style="rounded=0;orthogonalLoop=1;jettySize=auto;html=1;dashed=1;dashPattern=1 4;endArrow=none;endFill=0;entryX=0.999;entryY=0.452;entryDx=0;entryDy=0;entryPerimeter=0;" edge="1" parent="1" target="iq2cGOWBgzLNHuhJLWZD-1">
          <mxGeometry relative="1" as="geometry">
            <mxPoint x="229.49999999999977" y="380" as="targetPoint" />
            <mxPoint x="151.5" y="380" as="sourcePoint" />
          </mxGeometry>
        </mxCell>
        <mxCell id="iq2cGOWBgzLNHuhJLWZD-59" style="edgeStyle=elbowEdgeStyle;rounded=0;orthogonalLoop=1;jettySize=auto;html=1;elbow=vertical;curved=0;" edge="1" parent="1" source="iq2cGOWBgzLNHuhJLWZD-11" target="iq2cGOWBgzLNHuhJLWZD-52">
          <mxGeometry relative="1" as="geometry" />
        </mxCell>
        <mxCell id="iq2cGOWBgzLNHuhJLWZD-60" value="If data invalidated&amp;nbsp;&lt;br&gt;Send a exception message panel" style="edgeLabel;html=1;align=center;verticalAlign=middle;resizable=0;points=[];" vertex="1" connectable="0" parent="iq2cGOWBgzLNHuhJLWZD-59">
          <mxGeometry x="-0.0905" y="-2" relative="1" as="geometry">
            <mxPoint x="-36" y="2" as="offset" />
          </mxGeometry>
        </mxCell>
      </root>
    </mxGraphModel>
  </diagram>
</mxfile>
